<svg width="1782" height="374" viewBox="0 0 1782 374" fill="none" xmlns="http://www.w3.org/2000/svg">
  <defs>
    <linearGradient id="bg" x1="0" x2="1782" y1="0" y2="0" gradientUnits="userSpaceOnUse">
      <stop stop-color="#242424" />
      <stop offset="0.48" stop-color="#111111" />
      <stop offset="1" stop-color="#050505" />
    </linearGradient>
    <filter id="noise" x="0" y="0" width="1782" height="374" filterUnits="userSpaceOnUse">
      <feTurbulence type="fractalNoise" baseFrequency="1.15" numOctaves="3" seed="8" />
      <feColorMatrix type="matrix" values="0 0 0 0 0.35 0 0 0 0 0.35 0 0 0 0 0.35 0 0 0 0.22 0" />
    </filter>
  </defs>

  <rect width="1782" height="374" fill="url(#bg)" />
  <rect width="1782" height="374" filter="url(#noise)" opacity="0.7" />

  <g transform="translate(73 89) scale(1.95)">
    <path
      d="M4.86399 87.552V77.824H-1.33514e-05V48.64H4.86399V38.912H9.72799V34.048H14.592V29.184H43.776V34.048H48.64V38.912H53.504V43.776H58.368V53.504H48.64V48.64H43.776V43.776H38.912V38.912H19.456V43.776H14.592V48.64H9.72799V77.824H14.592V82.688H19.456V87.552H38.912V82.688H43.776V77.824H48.64V72.96H58.368V82.688H53.504V87.552H48.64V92.416H43.776V97.28H14.592V92.416H9.72799V87.552H4.86399ZM77.853 87.552V38.912H68.125V29.184H77.853V14.592H87.581V29.184H107.037V38.912H87.581V87.552H107.037V97.28H87.581V92.416H82.717V87.552H77.853ZM116.75 97.28V82.688H121.614V77.824H126.478V72.96H131.342V68.096H136.206V58.368H131.342V53.504H126.478V48.64H121.614V43.776H116.75V29.184H126.478V38.912H131.342V43.776H136.206V48.64H141.07V58.368H145.934V48.64H150.798V43.776H155.662V38.912H160.526V29.184H170.254V43.776H165.39V48.64H160.526V53.504H155.662V58.368H150.798V68.096H155.662V72.96H160.526V77.824H165.39V82.688H170.254V97.28H160.526V87.552H155.662V77.824H145.934V68.096H141.07V77.824H131.342V87.552H126.478V97.28H116.75Z"
      fill="#F4F4F4"
    />
    <path d="M184.864 111.872V2.28882e-05H194.592V111.872H184.864Z" fill="#40E0D0" />
  </g>

  <text
    x="690"
    y="171"
    fill="#D1D1D1"
    font-family="Menlo, Monaco, Consolas, 'Liberation Mono', monospace"
    font-size="45"
    font-weight="400"
  >
    The open-source self-learning context
  </text>
  <text
    x="604"
    y="231"
    fill="#D1D1D1"
    font-family="Menlo, Monaco, Consolas, 'Liberation Mono', monospace"
    font-size="45"
    font-weight="400"
  >
    layer for AI engineering agents at scale
  </text>
</svg>
