<svg width="196" height="106" viewBox="0 0 196 106" fill="none" xmlns="http://www.w3.org/2000/svg">
<path d="M34.048 28.1574V24.3174H37.888V28.1574H34.048ZM24.32 28.1574V24.3174H28.16V28.1574H24.32ZM38.912 28.1574V24.3174L42.752 24.3182V28.1574H38.912ZM29.184 28.1574V24.3174H33.024V28.1574H29.184ZM14.592 28.1574V24.3174H18.432V28.1574H14.592ZM19.456 28.1574V24.3174H23.296V28.1574H19.456ZM14.592 33.0214V29.1814H18.432V33.0214H14.592ZM9.728 33.0214V29.1814H13.568V33.0214H9.728ZM38.912 33.0214V29.1814H42.752V33.0214H38.912ZM34.048 33.0214V29.1814H37.888V33.0214H34.048ZM29.184 33.0214V29.1814H33.024V33.0214H29.184ZM24.32 33.0214V29.1814H28.16V33.0214H24.32ZM43.776 33.0214V29.1814H47.616V33.0214H43.776ZM19.456 33.0214V29.1814H23.296V33.0214H19.456ZM43.776 37.8854V34.0454H47.616V37.8854H43.776ZM48.64 37.8854V34.0454H52.48V37.8854H48.64ZM14.592 37.8854V34.0454H18.432V37.8854H14.592ZM38.912 37.8854V34.0454H42.752V37.8854H38.912ZM9.728 37.8854V34.0454H13.568V37.8854H9.728ZM4.864 37.8854V34.0454H8.704V37.8854H4.864ZM53.504 42.7494V38.9094H57.344V42.7494H53.504ZM48.64 42.7494V38.9094H52.48V42.7494H48.64ZM4.864 42.7494V38.9094H8.704V42.7494H4.864ZM9.728 42.7494V38.9094H13.568V42.7494H9.728ZM43.776 42.7494V38.9094H47.616V42.7494H43.776ZM53.504 47.6134V43.7734H57.344V47.6134H53.504ZM4.864 47.6134V43.7734H8.704V47.6134H4.864ZM1.10726e-06 47.6134V43.7734H3.84V47.6134H1.10726e-06ZM48.64 47.6134V43.7734H52.48V47.6134H48.64ZM1.10726e-06 52.4774V48.6374H3.84V52.4774H1.10726e-06ZM4.864 52.4774V48.6374H8.704V52.4774H4.864ZM4.864 57.3414V53.5014H8.704V57.3414H4.864ZM1.10726e-06 57.3414V53.5014H3.84V57.3414H1.10726e-06ZM1.10726e-06 62.2054V58.3654H3.84V62.2054H1.10726e-06ZM4.864 62.2054V58.3654H8.704V62.2054H4.864ZM1.10726e-06 67.0694V63.2294H3.84V67.0694H1.10726e-06ZM4.864 67.0694V63.2294H8.704V67.0694H4.864ZM4.864 71.9334V68.0934H8.704V71.9334H4.864ZM48.64 71.9334V68.0934H52.48V71.9334H48.64ZM53.504 71.9334V68.0934H57.344V71.9334H53.504ZM1.10726e-06 71.9334V68.0934H3.84V71.9334H1.10726e-06ZM43.776 76.7974V72.9574H47.616V76.7974H43.776ZM48.64 76.7974V72.9574H52.48V76.7974H48.64ZM53.504 76.7974V72.9574H57.344V76.7974H53.504ZM9.728 76.7974V72.9574H13.568V76.7974H9.728ZM4.864 76.7974V72.9574H8.704V76.7974H4.864ZM14.592 81.6614V77.8214H18.432V81.6614H14.592ZM43.776 81.6614V77.8214H47.616V81.6614H43.776ZM38.912 81.6614V77.8214H42.752V81.6614H38.912ZM9.728 81.6614V77.8214H13.568V81.6614H9.728ZM4.864 81.6614V77.8214H8.704V81.6614H4.864ZM48.64 81.6614V77.8214H52.48V81.6614H48.64ZM29.184 86.5254V82.6854H33.024V86.5254H29.184ZM14.592 86.5254V82.6854H18.432V86.5254H14.592ZM9.728 86.5254V82.6854H13.568V86.5254H9.728ZM19.456 86.5254V82.6854H23.296V86.5254H19.456ZM24.32 86.5254V82.6854H28.16V86.5254H24.32ZM34.048 86.5254V82.6854H37.888V86.5254H34.048ZM38.912 86.5254V82.6854H42.752V86.5254H38.912ZM43.776 86.5254V82.6854H47.616V86.5254H43.776ZM34.048 91.3894V87.5494H37.888V91.3894H34.048ZM14.592 91.3894V87.5494H18.432V91.3894H14.592ZM19.456 91.3894V87.5494H23.296V91.3894H19.456ZM38.912 91.3894V87.5494H42.752V91.3894H38.912ZM29.184 91.3894V87.5494H33.024V91.3894H29.184ZM24.32 91.3894V87.5494H28.16V91.3894H24.32Z" fill="white"/>
<path d="M72.9464 13.568V9.728H76.7864V13.568H72.9464ZM68.0824 13.568V9.728H71.9224V13.568H68.0824ZM72.9464 18.432V14.592H76.7864V18.432H72.9464ZM68.0824 18.432V14.592H71.9224V18.432H68.0824ZM68.0824 23.296V19.456H71.9224V23.296H68.0824ZM72.9464 23.296V19.456H76.7864V23.296H72.9464ZM63.2183 28.16V24.32H67.0584V28.16H63.2183ZM58.3543 28.16V24.32H62.1943V28.16H58.3543ZM77.8104 28.16V24.32H81.6504V28.16H77.8104ZM82.6744 28.16V24.32H86.5144V28.16H82.6744ZM87.5384 28.16V24.32H91.3784V28.16H87.5384ZM92.4024 28.16V24.32H96.2424V28.16H92.4024ZM68.0824 28.16V24.32H71.9224V28.16H68.0824ZM72.9464 28.16V24.32H76.7864V28.16H72.9464ZM63.2183 33.024V29.184H67.0584V33.024H63.2183ZM58.3543 33.024V29.184H62.1943V33.024H58.3543ZM77.8104 33.024V29.184H81.6504V33.024H77.8104ZM82.6744 33.024V29.184H86.5144V33.024H82.6744ZM72.9464 33.024V29.184H76.7864V33.024H72.9464ZM68.0824 33.024V29.184H71.9224V33.024H68.0824ZM87.5384 33.024V29.184H91.3784V33.024H87.5384ZM92.4024 33.024V29.184H96.2424V33.024H92.4024ZM72.9464 37.888V34.048H76.7864V37.888H72.9464ZM68.0824 37.888V34.048H71.9224V37.888H68.0824ZM68.0824 42.752V38.912H71.9224V42.752H68.0824ZM72.9464 42.752V38.912H76.7864V42.752H72.9464ZM68.0824 47.616V43.776H71.9224V47.616H68.0824ZM72.9464 47.616V43.776H76.7864V47.616H72.9464ZM72.9464 52.48V48.64H76.7864V52.48H72.9464ZM68.0824 52.48V48.64H71.9224V52.48H68.0824ZM72.9464 57.344V53.504H76.7864V57.344H72.9464ZM68.0824 57.344V53.504H71.9224V57.344H68.0824ZM72.9464 62.208V58.368H76.7864V62.208H72.9464ZM68.0824 62.208V58.368H71.9224V62.208H68.0824ZM72.9464 67.072V63.232H76.7864V67.072H72.9464ZM68.0824 67.072V63.232H71.9224V67.072H68.0824ZM72.9464 71.936V68.096H76.7864V71.936H72.9464ZM68.0824 71.936V68.096H71.9224V71.936H68.0824ZM68.0824 76.8V72.96H71.9224V76.8H68.0824ZM72.9464 76.8V72.96H76.7864V76.8H72.9464ZM72.9464 81.664V77.824H76.7864V81.664H72.9464ZM68.0824 81.664V77.824H71.9224V81.664H68.0824ZM87.5384 86.528V82.688H91.3784V86.528H87.5384ZM82.6744 86.528V82.688H86.5144V86.528H82.6744ZM77.8104 86.528V82.688H81.6504V86.528H77.8104ZM72.9464 86.528V82.688H76.7864V86.528H72.9464ZM92.4024 86.528V82.688H96.2424V86.528H92.4024ZM87.5384 91.392V87.552H91.3784V91.392H87.5384ZM82.6744 91.392V87.552H86.5144V91.392H82.6744ZM77.8104 91.392V87.552H81.6504V91.392H77.8104ZM92.4024 91.392V87.552H96.2424V91.392H92.4024Z" fill="white"/>
<path d="M102.124 28.16V24.32H105.964V28.16H102.124ZM106.988 28.16V24.32H110.828V28.16H106.988ZM150.764 28.16V24.32H154.604V28.16H150.764ZM145.9 28.16V24.32H149.74V28.16H145.9ZM102.124 33.024V29.184H105.964V33.024H102.124ZM106.988 33.024V29.184H110.828V33.024H106.988ZM150.764 33.024V29.184H154.604V33.024H150.764ZM145.9 33.024V29.184H149.74V33.024H145.9ZM102.124 37.888V34.048H105.964V37.888H102.124ZM111.852 37.888V34.048H115.692V37.888H111.852ZM150.764 37.888V34.048H154.604V37.888H150.764ZM141.036 37.888V34.048H144.876V37.888H141.036ZM145.9 37.888V34.048H149.74V37.888H145.9ZM106.988 37.888V34.048H110.828V37.888H106.988ZM141.036 42.752V38.912H144.876V42.752H141.036ZM111.852 42.752V38.912H115.692V42.752H111.852ZM136.172 42.752V38.912H140.012V42.752H136.172ZM106.988 42.752V38.912H110.828V42.752H106.988ZM145.9 42.752V38.912H149.74V42.752H145.9ZM116.716 42.752V38.912H120.556V42.752H116.716ZM121.58 47.616V43.776H125.42V47.616H121.58ZM111.852 47.616V43.776H115.692V47.616H111.852ZM141.036 47.616V43.776H144.876V47.616H141.036ZM116.716 47.616V43.776H120.556V47.616H116.716ZM131.308 47.616V43.776H135.148V47.616H131.308ZM136.172 47.616V43.776H140.012V47.616H136.172ZM136.172 52.48V48.64H140.012V52.48H136.172ZM121.58 52.48V48.64H125.42V52.48H121.58ZM131.308 52.48V48.64H135.148V52.48H131.308ZM116.716 52.48V48.64H120.556V52.48H116.716ZM131.308 57.344V53.504H135.148V57.344H131.308ZM126.444 57.344V53.504H130.284V57.344H126.444ZM121.58 57.344V53.504H125.42V57.344H121.58ZM121.58 62.208V58.368H125.42V62.208H121.58ZM126.444 62.208V58.368H130.284V62.208H126.444ZM131.308 62.208V58.368H135.148V62.208H131.308ZM116.716 67.072V63.232H120.556V67.072H116.716ZM131.308 67.072V63.232H135.148V67.072H131.308ZM136.172 67.072V63.232H140.012V67.072H136.172ZM121.58 67.072V63.232H125.42V67.072H121.58ZM116.716 71.936V68.096H120.556V71.936H116.716ZM141.036 71.936V68.096H144.876V71.936H141.036ZM111.852 71.936V68.096H115.692V71.936H111.852ZM136.172 71.936V68.096H140.012V71.936H136.172ZM131.308 71.936V68.096H135.148V71.936H131.308ZM121.58 71.936V68.096H125.42V71.936H121.58ZM141.036 76.8V72.96H144.876V76.8H141.036ZM111.852 76.8V72.96H115.692V76.8H111.852ZM145.9 76.8V72.96H149.74V76.8H145.9ZM106.988 76.8V72.96H110.828V76.8H106.988ZM145.9 81.664V77.824H149.74V81.664H145.9ZM141.036 81.664V77.824H144.876V81.664H141.036ZM111.852 81.664V77.824H115.692V81.664H111.852ZM150.764 81.664V77.824H154.604V81.664H150.764ZM102.124 81.664V77.824H105.964V81.664H102.124ZM106.988 81.664V77.824H110.828V81.664H106.988ZM145.9 86.528V82.688H149.74V86.528H145.9ZM102.124 86.528V82.688H105.964V86.528H102.124ZM106.988 86.528V82.688H110.828V86.528H106.988ZM150.764 86.528V82.688H154.604V86.528H150.764ZM145.9 91.392V87.552H149.74V91.392H145.9ZM106.988 91.392V87.552H110.828V91.392H106.988ZM102.124 91.392V87.552H105.964V91.392H102.124ZM150.764 91.392V87.552H154.604V91.392H150.764Z" fill="white"/>
<path d="M186.606 3.84V0H190.446V3.84H186.606ZM191.47 3.84V0H195.31V3.84H191.47ZM191.47 8.704V4.86401H195.31V8.704H191.47ZM186.606 8.704V4.86401H190.446V8.704H186.606ZM191.47 13.568V9.728H195.31V13.568H191.47ZM186.606 13.568V9.728H190.446V13.568H186.606ZM191.47 18.432V14.592H195.31V18.432H191.47ZM186.606 18.432V14.592H190.446V18.432H186.606ZM191.47 23.296V19.456H195.31V23.296H191.47ZM186.606 23.296V19.456H190.446V23.296H186.606ZM191.47 28.16V24.32H195.31V28.16H191.47ZM186.606 28.16V24.32H190.446V28.16H186.606ZM191.47 33.024V29.184H195.31V33.024H191.47ZM186.606 33.024V29.184H190.446V33.024H186.606ZM191.47 37.888V34.048H195.31V37.888H191.47ZM186.606 37.888V34.048H190.446V37.888H186.606ZM191.47 42.752V38.912H195.31V42.752H191.47ZM186.606 42.752V38.912H190.446V42.752H186.606ZM186.606 47.616V43.776H190.446V47.616H186.606ZM191.47 47.616V43.776H195.31V47.616H191.47ZM186.606 52.48V48.64H190.446V52.48H186.606ZM191.47 52.48V48.64H195.31V52.48H191.47ZM186.606 57.344V53.504H190.446V57.344H186.606ZM191.47 57.344V53.504H195.31V57.344H191.47ZM186.606 62.208V58.368H190.446V62.208H186.606ZM191.47 62.208V58.368H195.31V62.208H191.47ZM186.606 67.072V63.232H190.446V67.072H186.606ZM191.47 67.072V63.232H195.31V67.072H191.47ZM191.47 71.936V68.096H195.31V71.936H191.47ZM186.606 71.936V68.096H190.446V71.936H186.606ZM186.606 76.8V72.96H190.446V76.8H186.606ZM191.47 76.8V72.96H195.31V76.8H191.47ZM186.606 81.664V77.824H190.446V81.664H186.606ZM191.47 81.664V77.824H195.31V81.664H191.47ZM186.606 86.528V82.688H190.446V86.528H186.606ZM191.47 86.528V82.688H195.31V86.528H191.47ZM186.606 91.392V87.552H190.446V91.392H186.606ZM191.47 91.392V87.552H195.31V91.392H191.47ZM191.47 96.256V92.416H195.31V96.256H191.47ZM186.606 96.256V92.416H190.446V96.256H186.606ZM191.47 101.12V97.28H195.31V101.12H191.47ZM186.606 101.12V97.28H190.446V101.12H186.606ZM186.606 105.984V102.144H190.446V105.984H186.606ZM191.47 105.984V102.144H195.31V105.984H191.47Z" fill="white"/>
</svg>
