<svg width="512" height="512" viewBox="0 0 512 512" fill="none" xmlns="http://www.w3.org/2000/svg">
<rect width="512" height="512" fill="white"/>
<path d="M107.2 297.8V282.6H99.6V237H107.2V221.8H114.8V214.2H122.4V206.6H168V214.2H175.6V221.8H183.2V229.4H190.8V244.6H175.6V237H168V229.4H160.4V221.8H130V229.4H122.4V237H114.8V282.6H122.4V290.2H130V297.8H160.4V290.2H168V282.6H175.6V275H190.8V290.2H183.2V297.8H175.6V305.4H168V313H122.4V305.4H114.8V297.8H107.2ZM211.245 297.8V221.8H196.045V206.6H211.245V183.8H226.445V206.6H256.845V221.8H226.445V297.8H256.845V313H226.445V305.4H218.845V297.8H211.245ZM262.022 313V290.2H269.622V282.6H277.222V275H284.822V267.4H292.422V252.2H284.822V244.6H277.222V237H269.622V229.4H262.022V206.6H277.222V221.8H284.822V229.4H292.422V237H300.022V252.2H307.622V237H315.222V229.4H322.822V221.8H330.422V206.6H345.622V229.4H338.022V237H330.422V244.6H322.822V252.2H315.222V267.4H322.822V275H330.422V282.6H338.022V290.2H345.622V313H330.422V297.8H322.822V282.6H307.622V267.4H300.022V282.6H284.822V297.8H277.222V313H262.022ZM390.119 335.8V161H405.319V335.8H390.119Z" fill="black"/>
</svg>
